<?xml version="1.0" standalone="no"?> <!DOCTYPE svg PUBLIC "-//W3C//DTD SVG 20010904//EN" "http://www.w3.org/TR/2001/REC-SVG-20010904/DTD/svg10.dtd"> <svg version="1.0" xmlns="http://www.w3.org/2000/svg" width="1900pt" height="1750pt" viewBox="250 680 1800 700" preserveAspectRatio="xMidYMid meet"> <g transform="translate(0.000000,2152.000000) scale(0.100000,-0.100000)" fill="#f5f1ea" stroke="none"> <path d="M23405 21338 c-29 -16 -35 -29 -24 -50 11 -21 39 -24 39 -4 0 7 11 21 25 30 43 28 6 50 -40 24z"/> <path d="M23382 21194 c-10 -22 -8 -31 13 -69 l26 -43 -21 -15 -21 -15 27 -21 c36 -28 37 -25 40 74 2 75 0 85 -17 90 -10 4 -19 11 -19 16 0 18 -17 8 -28 -17z"/> <path d="M23424 20975 c-19 -48 -10 -110 15 -113 23 -4 24 -2 18 47 -8 67 -22 95 -33 66z"/> <path d="M14150 17969 c-19 -4 -69 -13 -110 -18 -227 -30 -478 -226 -481 -375 -3 -126 135 -207 292 -172 119 28 165 81 119 139 -45 56 4 121 134 180 94 43 214 24 357 -57 83 -47 249 -231 249 -276 0 -7 6 -21 13 -29 48 -57 103 -325 101 -496 -1 -174 -29 -312 -110 -540 -47 -133 -151 -314 -308 -538 -141 -202 -518 -577 -818 -814 -217 -171 -598 -445 -648 -465 -8 -3 -65 -39 -127 -79 -117 -77 -139 -91 -240 -149 -52 -30 -242 -142 -295 -175 -9 -5 -56 -32 -105 -59 -48 -27 -135 -78 -193 -113 -58 -35 -110 -63 -116 -63 -6 0 -19 -9 -28 -19 -10 -11 -29 -22 -43 -26 -15 -3 -38 -15 -51 -26 -14 -10 -28 -19 -33 -19 -7 0 -107 -64 -166 -106 -26 -18 -59 -11 -68 15 -6 18 28 190 44 218 5 10 14 63 21 118 7 55 18 111 25 125 7 14 16 61 20 105 4 44 13 98 20 120 8 22 18 76 24 119 6 43 18 104 25 135 8 31 20 85 26 121 6 36 20 91 31 123 10 31 19 72 19 91 0 44 41 120 95 176 135 142 44 253 -222 270 -331 20 -533 -105 -622 -385 -22 -68 -25 -72 -116 -145 -44 -36 -93 -76 -108 -90 -15 -13 -54 -41 -85 -62 -31 -21 -82 -56 -112 -79 -120 -89 -407 -251 -555 -312 -62 -26 -224 -57 -299 -57 -49 0 -173 36 -198 57 -30 26 -93 28 -117 4 -37 -37 -30 -109 17 -152 82 -78 347 -107 502 -55 30 11 96 32 145 49 103 34 343 152 442 215 130 84 314 232 370 297 22 26 52 28 76 6 7 -7 -46 -302 -58 -321 -3 -5 -10 -56 -15 -115 -6 -58 -17 -130 -25 -160 -7 -30 -17 -98 -21 -152 -3 -54 -13 -123 -20 -153 -8 -30 -19 -107 -25 -170 -5 -63 -17 -140 -25 -171 -8 -31 -14 -82 -14 -112 0 -86 -10 -103 -87 -140 -112 -54 -217 -109 -233 -122 -8 -7 -51 -32 -95 -55 -44 -24 -133 -78 -198 -121 -65 -44 -121 -79 -124 -79 -9 0 -134 -82 -258 -171 -38 -27 -111 -76 -162 -110 -50 -33 -97 -67 -105 -76 -7 -9 -30 -27 -52 -42 -22 -14 -49 -33 -61 -41 -12 -8 -35 -24 -51 -35 -48 -32 -249 -193 -358 -286 -174 -149 -414 -415 -486 -539 -12 -19 -31 -52 -43 -72 -123 -205 -210 -394 -242 -528 -8 -30 -21 -75 -29 -100 -59 -174 -87 -618 -46 -726 7 -16 18 -64 25 -107 8 -42 21 -87 30 -99 8 -13 15 -31 15 -41 0 -48 100 -224 175 -308 83 -92 249 -209 340 -239 22 -7 49 -19 60 -25 11 -7 46 -15 78 -19 32 -3 74 -13 94 -21 42 -18 319 -21 393 -4 25 5 74 14 110 20 36 6 85 18 110 25 25 8 65 21 90 28 53 16 169 63 190 76 8 6 24 14 35 19 11 5 31 14 45 20 46 20 166 89 206 118 22 15 69 48 104 73 87 61 195 171 254 258 26 40 52 72 56 72 8 0 181 343 203 405 8 22 31 78 52 125 20 47 40 99 45 117 4 18 17 56 28 85 33 89 53 150 67 208 8 30 23 82 34 114 12 33 21 65 21 73 0 8 8 30 19 51 10 20 21 61 25 91 4 30 14 70 22 89 8 19 19 64 24 99 6 36 17 77 24 92 8 14 17 53 21 86 3 33 13 79 21 102 8 22 21 79 28 125 17 100 52 271 73 353 8 33 21 101 28 150 8 50 19 104 25 120 6 16 15 77 20 136 6 58 16 124 24 147 8 22 17 78 21 124 4 45 13 112 21 147 8 35 19 119 24 185 9 113 22 211 39 280 7 33 -7 25 306 177 158 77 296 150 375 200 8 5 31 16 50 24 19 9 42 20 50 25 8 5 49 28 90 51 41 23 101 59 132 80 31 20 67 40 80 44 13 4 30 13 38 20 8 7 65 40 125 74 94 53 210 122 305 182 14 9 57 35 95 59 39 24 101 64 139 89 68 46 113 74 173 108 17 10 84 54 149 98 64 44 154 105 199 135 549 369 1027 796 1200 1071 83 132 205 364 205 390 0 6 9 28 19 48 11 20 24 56 30 81 5 25 16 65 24 90 52 163 78 554 43 660 -8 25 -20 75 -26 112 -7 37 -18 72 -26 79 -8 6 -14 21 -14 33 0 21 -6 34 -50 111 -84 148 -244 304 -367 357 -15 7 -39 19 -53 29 -14 9 -43 19 -65 23 -21 4 -51 14 -66 22 -15 7 -67 18 -116 24 -48 6 -117 15 -153 20 -76 11 -122 11 -170 -1z m-3461 -4918 c10 -7 12 -23 8 -62 -11 -104 -37 -274 -47 -309 -6 -19 -15 -89 -20 -155 -5 -67 -14 -134 -21 -150 -6 -17 -17 -86 -24 -155 -8 -69 -20 -161 -29 -205 -8 -44 -27 -145 -41 -225 -15 -80 -37 -192 -50 -250 -13 -58 -29 -136 -36 -175 -6 -38 -16 -78 -20 -87 -5 -9 -13 -48 -19 -88 -5 -39 -16 -81 -24 -93 -8 -12 -17 -47 -21 -77 -4 -30 -15 -82 -25 -115 -10 -33 -22 -78 -28 -100 -11 -43 -36 -121 -54 -170 -6 -16 -20 -57 -32 -90 -12 -33 -30 -74 -39 -92 -9 -18 -17 -41 -17 -51 0 -11 -8 -30 -18 -43 -11 -13 -22 -37 -26 -53 -4 -16 -16 -41 -27 -54 -10 -14 -19 -28 -19 -33 0 -12 -91 -146 -149 -219 -76 -97 -138 -160 -221 -226 -69 -55 -103 -78 -185 -129 -53 -33 -186 -95 -204 -95 -9 0 -26 -7 -39 -15 -12 -9 -74 -23 -143 -32 -194 -26 -298 -1 -441 104 -103 75 -236 266 -251 360 -4 21 -16 68 -27 104 -33 103 -28 517 8 610 6 14 13 52 17 84 5 33 16 77 26 100 10 22 19 50 19 62 0 34 119 330 162 403 5 8 18 34 29 57 18 39 73 124 160 247 79 114 234 281 378 411 94 84 400 329 423 337 18 8 125 81 210 144 31 24 69 50 85 59 105 61 179 107 325 203 61 39 113 72 115 72 11 0 158 98 221 147 68 52 86 60 111 44z"/> <path d="M11458 16626 c-94 -25 -137 -48 -182 -95 -70 -73 -18 -192 98 -226 27 -8 54 -19 60 -24 17 -14 243 -24 311 -13 280 45 357 232 135 328 -125 54 -287 66 -422 30z"/> <path d="M12106 15243 c-16 -3 -43 -14 -60 -26 -17 -12 -40 -27 -51 -33 -25 -14 -64 -158 -65 -241 0 -49 -4 -65 -19 -75 -10 -7 -21 -26 -24 -43 -23 -118 -46 -200 -56 -197 -6 1 -11 -2 -11 -6 0 -58 -26 -234 -37 -256 -17 -32 -38 -264 -28 -303 3 -13 16 -25 30 -29 14 -3 30 -14 35 -23 14 -23 40 12 40 55 0 17 7 49 16 70 21 50 104 380 104 415 0 14 7 48 15 75 9 27 20 85 25 129 5 44 15 94 23 110 8 17 18 56 22 88 10 85 53 164 109 199 51 31 59 58 24 82 -22 16 -36 17 -92 9z"/> <path d="M11715 13462 c-64 -40 -108 -145 -119 -284 -4 -42 -13 -98 -21 -125 -8 -26 -19 -100 -25 -163 -6 -63 -18 -134 -26 -158 -8 -23 -14 -65 -14 -92 0 -27 -9 -85 -19 -129 -11 -43 -24 -121 -31 -173 -7 -51 -16 -101 -21 -111 -5 -10 -16 -64 -23 -120 -13 -95 -26 -151 -76 -312 -10 -33 -21 -89 -25 -125 -4 -35 -13 -79 -20 -98 -8 -18 -17 -57 -21 -85 -3 -29 -14 -81 -23 -117 -10 -36 -31 -119 -46 -185 -15 -66 -37 -140 -47 -164 -11 -24 -22 -60 -24 -80 -10 -68 -14 -79 -34 -84 -17 -4 -20 -13 -20 -59 0 -34 -7 -64 -18 -83 -11 -17 -22 -48 -26 -70 -12 -65 -46 -168 -61 -185 -8 -8 -19 -38 -25 -65 -13 -61 -67 -174 -86 -182 -8 -3 -14 -10 -14 -17 0 -19 -46 -125 -62 -144 -8 -9 -18 -29 -22 -44 -3 -15 -24 -53 -46 -84 -22 -32 -40 -63 -40 -69 0 -6 -19 -32 -42 -57 -83 -87 -118 -128 -118 -138 0 -5 -7 -10 -15 -10 -8 0 -27 -19 -44 -42 -39 -56 -257 -238 -286 -238 -3 0 -29 -17 -58 -37 -64 -45 -135 -81 -207 -103 -85 -27 -73 -44 33 -48 71 -2 102 2 168 23 44 14 87 25 95 25 20 0 199 86 259 125 28 18 55 34 62 36 48 15 343 335 343 373 0 7 11 23 26 36 14 14 34 43 45 65 11 22 38 72 59 110 22 39 47 86 55 105 8 19 24 53 34 75 55 119 56 121 118 300 13 39 28 79 33 90 10 21 32 99 57 200 8 33 21 76 29 95 7 19 16 58 19 85 4 28 15 77 25 110 11 33 26 96 34 140 8 44 22 109 30 145 37 157 57 254 62 312 3 35 15 92 25 127 10 35 19 82 19 105 0 24 9 77 19 118 11 42 25 128 30 191 6 63 18 131 26 151 8 19 15 50 15 68 1 18 19 137 41 263 22 127 47 277 54 335 8 58 22 150 32 205 10 55 17 140 18 190 0 101 -7 110 -60 77z"/> <path d="M10715 8089 c-38 -5 -92 -20 -120 -33 -27 -13 -61 -29 -75 -35 -88 -41 -180 -110 -228 -170 -92 -114 -135 -176 -147 -212 -8 -22 -21 -50 -30 -62 -8 -12 -15 -32 -15 -44 0 -12 -9 -44 -19 -71 -38 -96 -36 -372 3 -447 9 -16 16 -40 16 -53 0 -13 9 -40 20 -60 10 -20 28 -57 39 -82 28 -62 145 -207 187 -232 18 -11 34 -24 34 -28 0 -4 15 -17 33 -29 17 -11 41 -26 52 -33 220 -143 489 -154 711 -27 29 16 57 36 64 44 7 8 19 15 26 15 41 0 257 256 279 330 4 14 16 39 26 56 11 17 19 41 19 53 0 11 10 49 22 83 28 82 32 330 6 370 -8 13 -19 44 -22 68 -7 43 -33 109 -78 195 -50 95 -217 272 -285 301 -17 8 -34 18 -38 24 -3 5 -25 15 -48 22 -23 6 -52 18 -65 26 -53 34 -228 48 -367 31z m314 -151 c151 -76 277 -238 339 -433 38 -123 38 -404 -1 -519 -15 -43 -27 -83 -27 -88 0 -6 -9 -21 -20 -35 -11 -14 -20 -32 -20 -40 0 -31 -125 -173 -205 -232 -134 -100 -376 -104 -495 -9 -15 13 -38 31 -50 40 -34 25 -160 178 -160 192 0 7 -8 24 -19 37 -10 13 -22 40 -26 59 -4 19 -14 48 -22 64 -37 72 -45 392 -13 501 58 195 135 311 280 423 116 90 306 107 439 40z"/> <path d="M12740 8086 c-58 -11 -138 -40 -180 -67 -8 -5 -30 -16 -49 -25 -80 -37 -144 -95 -244 -224 -145 -186 -201 -407 -167 -651 10 -68 26 -142 35 -164 10 -22 24 -56 32 -75 8 -19 28 -54 44 -78 16 -24 36 -56 44 -71 25 -50 147 -165 236 -225 237 -158 529 -165 750 -18 14 9 45 30 69 46 52 34 146 128 180 180 14 20 35 49 48 63 12 14 22 30 22 35 0 6 8 22 18 36 46 67 82 201 89 327 6 130 -10 304 -32 340 -7 11 -18 38 -25 60 -13 38 -22 55 -97 173 -48 74 -138 168 -197 205 -28 18 -60 38 -71 45 -11 7 -36 19 -55 28 -19 8 -48 22 -64 31 -68 37 -260 52 -386 29z m330 -152 c83 -44 205 -155 239 -219 12 -22 25 -47 30 -55 80 -132 128 -378 101 -520 -25 -136 -37 -175 -89 -280 -67 -137 -226 -310 -284 -310 -8 0 -34 -9 -58 -20 -63 -28 -204 -28 -256 0 -21 11 -44 20 -51 20 -36 0 -158 106 -230 200 -114 149 -181 421 -148 600 29 158 36 182 69 249 85 169 132 228 237 295 25 16 58 38 75 49 76 53 257 48 365 -9z"/> <path d="M16426 8079 c-337 -6 -472 -12 -477 -20 -13 -21 -8 -1606 5 -1623 15 -21 1016 -42 1047 -23 39 24 33 103 -9 126 -10 5 -172 6 -407 1 -292 -6 -393 -5 -402 3 -21 21 -21 623 -1 644 16 16 141 12 413 -12 66 -6 95 18 95 78 0 64 -16 68 -215 57 -99 -5 -200 -12 -225 -15 -88 -13 -85 -22 -82 327 4 325 4 334 30 342 9 3 186 2 392 -3 315 -7 380 -6 403 6 79 40 17 131 -83 121 -8 -1 -226 -5 -484 -9z"/> <path d="M6813 8070 c-13 -5 -23 -17 -23 -27 0 -10 -2 -347 -3 -749 -2 -572 -5 -734 -15 -746 -7 -9 -19 -38 -27 -65 -8 -27 -24 -58 -35 -68 -11 -10 -20 -22 -20 -28 0 -13 -78 -87 -92 -87 -6 0 -19 -6 -27 -14 -9 -7 -49 -21 -90 -30 -86 -19 -101 -29 -101 -65 0 -43 17 -51 103 -51 179 0 376 138 469 329 l42 86 3 235 c2 129 5 447 8 705 2 259 7 484 10 500 15 69 -106 113 -202 75z"/> <path d="M9463 8072 c-98 -3 -112 -16 -132 -122 -7 -36 -18 -74 -23 -85 -6 -10 -17 -40 -24 -65 -7 -25 -29 -90 -49 -145 -20 -55 -43 -127 -51 -160 -9 -33 -20 -65 -24 -71 -5 -6 -15 -35 -21 -65 -6 -30 -17 -65 -25 -79 -7 -14 -20 -47 -28 -75 -8 -27 -24 -79 -36 -115 -11 -36 -30 -94 -40 -130 -11 -36 -28 -94 -39 -130 -10 -36 -22 -86 -26 -113 -9 -65 -48 -111 -70 -83 -8 11 -15 26 -15 34 0 16 -110 348 -134 404 -9 21 -16 48 -16 60 0 13 -7 36 -16 53 -8 16 -20 51 -25 76 -6 26 -19 64 -30 85 -10 21 -19 49 -19 62 0 12 -7 37 -17 55 -9 18 -22 52 -29 77 -7 25 -29 88 -49 140 -20 52 -43 122 -51 154 -9 33 -22 69 -30 80 -8 11 -14 37 -14 57 0 26 -8 47 -26 68 l-26 31 -113 0 c-63 0 -116 -4 -119 -9 -3 -5 -8 -350 -11 -768 -3 -417 -8 -768 -11 -781 -18 -85 69 -160 111 -95 14 21 18 45 16 107 0 45 -5 304 -11 576 -12 607 -12 602 0 620 21 33 41 -13 113 -250 14 -47 33 -107 42 -135 9 -27 22 -72 30 -100 7 -27 20 -63 29 -80 9 -16 16 -40 16 -52 0 -12 5 -34 11 -50 22 -54 80 -219 93 -263 7 -25 20 -59 29 -77 10 -18 17 -42 17 -55 1 -13 9 -41 20 -63 11 -22 19 -53 20 -68 0 -40 25 -94 47 -100 10 -3 65 -7 123 -9 l105 -3 27 55 c14 30 32 78 39 105 6 28 22 73 35 102 13 28 24 58 24 66 0 7 11 46 25 85 14 39 25 80 25 89 1 10 9 36 20 58 11 22 19 53 20 68 0 15 9 48 20 73 12 24 25 63 30 87 5 23 20 78 34 122 13 44 38 125 55 180 64 212 91 264 91 178 3 -281 -3 -917 -9 -1048 -11 -222 -12 -219 94 -223 148 -5 146 -9 133 263 -5 110 -8 467 -6 792 l3 593 -25 7 c-14 5 -62 7 -107 5z"/> <path d="M14290 8073 c-79 -2 -148 -7 -153 -12 -14 -14 -12 -1619 3 -1636 13 -16 160 -22 195 -9 21 8 47 61 41 82 -3 9 -10 98 -16 196 -15 231 -21 222 141 208 118 -10 223 -34 249 -57 8 -7 29 -20 45 -28 37 -20 153 -132 304 -295 144 -156 432 -410 467 -412 5 0 25 -11 43 -24 19 -14 47 -28 65 -32 17 -4 41 -13 53 -21 55 -36 279 -38 363 -4 25 10 59 23 75 27 25 8 30 15 33 46 6 68 -10 82 -82 72 -240 -33 -357 21 -645 301 -270 262 -360 334 -486 386 -49 20 -56 26 -53 48 3 25 4 26 147 95 70 33 170 140 214 226 138 272 34 601 -241 767 -30 18 -60 33 -68 33 -7 0 -37 10 -66 22 -57 23 -273 30 -628 21z m501 -137 c98 -31 113 -39 182 -104 136 -131 184 -296 133 -469 -33 -115 -161 -293 -210 -293 -7 0 -24 -8 -37 -19 -13 -10 -37 -21 -54 -24 -57 -12 -420 -18 -435 -8 -18 12 -16 901 2 935 15 29 310 16 419 -18z"/> <path d="M7531 6643 c-73 -29 -100 -172 -42 -227 61 -59 148 -42 195 38 32 55 32 68 1 123 -36 60 -99 88 -154 66z"/> <path d="M10263 5472 c-51 -15 -103 -38 -116 -50 -13 -12 -27 -22 -31 -22 -45 0 -216 -202 -216 -255 0 -9 -9 -33 -20 -55 -16 -32 -20 -59 -20 -142 0 -84 4 -110 20 -141 11 -20 20 -44 20 -53 0 -70 190 -271 273 -290 16 -3 48 -15 71 -25 53 -24 324 -28 368 -5 14 8 43 19 64 26 109 36 126 66 144 248 14 150 13 152 -89 152 -106 0 -106 -1 -95 -141 15 -177 7 -184 -194 -182 -169 2 -272 57 -346 186 -71 124 -69 397 4 499 34 47 115 118 136 118 7 0 29 10 49 21 81 48 305 9 375 -66 48 -51 113 -7 88 61 -44 125 -274 179 -485 116z"/> <path d="M14399 5467 c-14 -18 -29 -44 -33 -57 -7 -23 -82 -200 -126 -295 -11 -22 -35 -76 -56 -120 -20 -44 -57 -123 -81 -175 -50 -106 -76 -163 -92 -200 -6 -14 -15 -32 -20 -40 -11 -16 -34 -61 -50 -98 -20 -42 1 -62 65 -62 30 0 64 4 74 10 18 10 22 20 55 135 9 33 25 78 36 101 10 23 19 48 19 56 0 32 27 37 227 42 226 5 212 10 251 -74 24 -51 48 -121 65 -195 15 -62 35 -73 129 -71 109 2 109 3 4 211 -48 96 -92 178 -97 181 -5 3 -9 13 -9 22 0 15 -14 47 -71 167 -10 22 -19 44 -19 50 0 5 -12 35 -26 65 -15 30 -40 84 -56 120 -16 36 -38 82 -49 102 -10 20 -19 50 -19 65 -1 33 -51 93 -77 93 -10 0 -30 -15 -44 -33z m52 -274 c6 -16 22 -51 35 -79 13 -28 24 -57 24 -64 0 -7 9 -29 20 -49 38 -71 51 -113 39 -127 -13 -16 -274 -20 -298 -5 -15 10 -2 65 25 108 8 12 32 68 55 125 50 126 46 118 70 118 12 0 24 -11 30 -27z"/> <path d="M7475 5480 c-33 -4 -93 -8 -133 -9 -81 -1 -101 -20 -87 -86 7 -38 7 -835 -1 -884 -10 -67 -3 -70 212 -77 181 -7 194 -6 260 16 309 101 435 319 383 663 -40 259 -310 420 -634 377z m260 -130 c167 -78 225 -203 211 -457 -9 -165 -59 -253 -179 -314 -68 -35 -306 -64 -330 -40 -13 12 -24 771 -12 819 9 38 222 33 310 -8z"/> <path d="M12539 5475 c-21 -11 -59 -83 -59 -111 0 -34 90 -43 180 -19 82 23 155 34 180 28 l21 -6 -5 -401 c-3 -220 -8 -427 -12 -460 -3 -32 -2 -62 3 -67 16 -16 161 -18 175 -2 11 13 14 166 3 182 -3 6 -8 669 -6 734 1 23 99 24 162 1 61 -21 160 -29 187 -15 33 17 30 72 -6 112 l-28 31 -195 -9 c-186 -8 -497 -3 -549 10 -14 4 -36 1 -51 -8z"/> <path d="M8921 5472 c-14 -10 -22 -1016 -8 -1039 10 -15 153 -9 173 8 12 10 15 23 10 54 -3 22 -10 72 -15 110 -12 85 -13 642 -1 705 4 25 11 61 15 80 11 57 -15 81 -95 87 -36 2 -71 0 -79 -5z"/> <path d="M11641 5470 c-55 -13 -58 -26 -33 -170 21 -123 13 -604 -14 -795 -9 -63 10 -80 93 -81 105 -3 107 0 98 115 -4 53 -6 254 -4 446 2 193 3 378 4 413 0 83 -31 99 -144 72z"/> <path d="M15671 5472 c-13 -10 -20 -1009 -7 -1031 8 -12 485 -22 507 -10 19 10 39 66 39 111 0 49 -56 62 -131 29 -32 -14 -73 -20 -149 -23 l-105 -3 0 395 c0 217 4 416 8 441 11 67 -11 91 -89 96 -32 2 -65 0 -73 -5z"/> </g> </svg>